<?xml version="1.0" encoding="utf-8"?>
<!-- Generator: Adobe Illustrator 26.1.0, SVG Export Plug-In . SVG Version: 6.00 Build 0)  -->
<svg version="1.1" id="Layer_1" xmlns="http://www.w3.org/2000/svg" xmlns:xlink="http://www.w3.org/1999/xlink" x="0px" y="0px"
	 width="120px" height="30px" viewBox="0 0 120 30" style="enable-background:new 0 0 120 30;" xml:space="preserve">
<style type="text/css">
	.st0{fill:none;}
	.st1{fill:#ED1C24;}
</style>
<g>
	<g>
		<rect x="29.87" y="0" class="st0" width="44.61" height="27.97"/>
		<path class="st1" d="M45.45,16.57c-0.13,0.13-0.28,0.19-0.45,0.19h-9.76v10.43c0,0.17-0.06,0.32-0.19,0.45
			c-0.13,0.13-0.28,0.19-0.44,0.19h-1.62c-0.17,0-0.32-0.06-0.44-0.19c-0.13-0.13-0.19-0.28-0.19-0.45V9.89
			c0-2.12,0.57-3.64,1.7-4.55c1.13-0.91,2.82-1.37,5.07-1.37c0.47,0,0.99,0.01,1.57,0.02c0.58,0.01,1.16,0.02,1.73,0.03
			c0.57,0.01,1.11,0.03,1.62,0.05c0.51,0.02,0.93,0.05,1.27,0.1c0.11,0.02,0.19,0.07,0.24,0.16c0.05,0.08,0.08,0.18,0.08,0.29V6.2
			c0,0.25-0.12,0.38-0.35,0.38h-6.14c-0.85,0-1.53,0.06-2.04,0.17c-0.51,0.12-0.9,0.31-1.18,0.57c-0.28,0.27-0.46,0.6-0.56,1.02
			c-0.1,0.41-0.14,0.93-0.14,1.54v4.42h9.76c0.17,0,0.32,0.06,0.45,0.19c0.13,0.13,0.19,0.27,0.19,0.44v1.19
			C45.65,16.3,45.58,16.45,45.45,16.57z"/>
	</g>
	<g>
	</g>
	<g>
		<g>
			<g>
				<path class="st1" d="M89.69,27.09h-2.2V13.47c0-0.24-0.2-0.44-0.44-0.44h-2.64c-0.24,0-0.44,0.2-0.44,0.44v13.62H83.1v-7.47
					c0-0.24-0.2-0.44-0.44-0.44h-2.6c-0.24,0-0.44,0.2-0.44,0.44v7.47H78.7V16.99c0-0.24-0.2-0.44-0.44-0.44h-2.64
					c-0.24,0-0.44,0.2-0.44,0.44v10.11h-0.88v-8.35c0-0.24-0.2-0.44-0.44-0.44h-2.64c-0.24,0-0.44,0.2-0.44,0.44v8.35h-0.88v-4.83
					c0-0.24-0.2-0.44-0.44-0.44h-2.64c-0.24,0-0.44,0.2-0.44,0.44v4.83h-2.2c-0.24,0-0.44,0.2-0.44,0.44c0,0.24,0.2,0.44,0.44,0.44
					h2.64c0.24,0,0.44-0.2,0.44-0.44V22.7h1.76v4.83c0,0.24,0.2,0.44,0.44,0.44h1.76c0.24,0,0.44-0.2,0.44-0.44v-8.35h1.76v8.35
					c0,0.24,0.2,0.44,0.44,0.44h1.76c0.24,0,0.44-0.2,0.44-0.44V17.43h1.76v10.11c0,0.24,0.2,0.44,0.44,0.44h1.79
					c0.24,0,0.44-0.2,0.44-0.44v-7.47h1.72v7.47c0,0.24,0.2,0.44,0.44,0.44h1.76c0.24,0,0.44-0.2,0.44-0.44V13.91h1.76v13.62
					c0,0.24,0.2,0.44,0.44,0.44h2.64c0.24,0,0.44-0.2,0.44-0.44C90.13,27.29,89.93,27.09,89.69,27.09z"/>
				<path class="st1" d="M65.52,18.31c0.97,0,1.76-0.79,1.76-1.76c0-0.21-0.04-0.4-0.11-0.59l8.63-8.63
					c0.31,0.27,0.7,0.43,1.14,0.43c0.33,0,0.63-0.09,0.89-0.25l2,2c-0.15,0.26-0.25,0.56-0.25,0.89c0,0.97,0.79,1.76,1.76,1.76
					c0.97,0,1.76-0.79,1.76-1.76c0-0.33-0.09-0.63-0.25-0.89l4.63-4.63c0.26,0.15,0.56,0.25,0.89,0.25c0.97,0,1.76-0.79,1.76-1.76
					c0-0.97-0.79-1.76-1.76-1.76c-0.97,0-1.76,0.79-1.76,1.76c0,0.33,0.09,0.63,0.25,0.89l-4.63,4.63
					c-0.26-0.15-0.56-0.25-0.89-0.25c-0.32,0-0.62,0.09-0.88,0.25l-2-2C78.61,6.63,78.7,6.33,78.7,6c0-0.97-0.79-1.76-1.76-1.76
					c-0.97,0-1.76,0.79-1.76,1.76c0,0.21,0.04,0.4,0.11,0.59l-8.63,8.63c-0.31-0.27-0.7-0.43-1.14-0.43c-0.97,0-1.76,0.79-1.76,1.76
					C63.76,17.52,64.55,18.31,65.52,18.31z M88.37,2.49c0.48,0,0.88,0.39,0.88,0.88c0,0.48-0.39,0.88-0.88,0.88
					c-0.24,0-0.46-0.1-0.62-0.25c0,0,0,0,0-0.01c0,0,0,0-0.01,0c-0.16-0.16-0.25-0.38-0.25-0.62C87.49,2.88,87.89,2.49,88.37,2.49z
					 M81.34,9.52c0.48,0,0.88,0.39,0.88,0.88c0,0.48-0.39,0.88-0.88,0.88c-0.48,0-0.88-0.39-0.88-0.88
					C80.46,9.91,80.85,9.52,81.34,9.52z M76.95,5.12c0.48,0,0.88,0.39,0.88,0.88c0,0.48-0.39,0.88-0.88,0.88
					c-0.48,0-0.88-0.39-0.88-0.88S76.46,5.12,76.95,5.12z M65.52,15.67c0.48,0,0.88,0.39,0.88,0.88c0,0.48-0.39,0.88-0.88,0.88
					c-0.48,0-0.88-0.39-0.88-0.88C64.64,16.06,65.04,15.67,65.52,15.67z"/>
			</g>
		</g>
	</g>
	<g>
		<path class="st1" d="M56.53,27.64c-0.11,0.13-0.24,0.19-0.41,0.19h-1.75c-0.17,0-0.31-0.06-0.41-0.19
			c-0.11-0.13-0.16-0.28-0.16-0.45v-20l-4.1,1.78c-0.15,0.06-0.29,0.1-0.41,0.1C49.09,9.06,49,8.95,49,8.71V7.09
			c0-0.11,0.03-0.19,0.08-0.24c0.05-0.05,0.13-0.11,0.24-0.17l4.8-2.29c0.25-0.13,0.48-0.19,0.67-0.19h1.3
			c0.17,0,0.31,0.06,0.43,0.17c0.12,0.12,0.17,0.26,0.17,0.43v22.39C56.69,27.36,56.64,27.51,56.53,27.64z"/>
	</g>
</g>
<g>
</g>
<g>
</g>
<g>
</g>
<g>
</g>
<g>
</g>
<g>
</g>
</svg>
